# xmcd
#
# Track frame offsets:
#	150
#	11622
#	22167
#	32832
#	45132
#	56255
#	66970
#	77015
#	88160
#	99605
#	115377
#	128090
#	142385
#	154295
#	166477
#	179400
#	192102
#	204237
#	214582
#	230277
#	242857
#	252965
#	265745
#	277292
#	289502
#
# Disc length: 4012 seconds
#
# Revision: 1
# Processed by: cddbd v1.5.2PL0 Copyright (c) Steve Scherf et al.
# Submitted via: EZCDAudioConverter 8.0.2.1
#
DISCID=6b0faa19
DTITLE=Various Artist - Country Girls
DYEAR=1995
DGENRE=Country
TTITLE0=Skeeter Davis - Gonna Get Along Without You Now
TTITLE1=Barbara Fairchild - Kid Stuff
TTITLE2=Connie Smith - Ain't Had No Lovin'
TTITLE3=Sammi Smith - Send Me The Pillow You Dream On
TTITLE4=Patsy Cline - Stop The World (And Let Me Off)
TTITLE5=Billie Jo Spears - I'm So Lonesome I Could Cry
TTITLE6=Kitty Wells - I Can't Stop Loving You
TTITLE7=Jean Shepard - A Satisfied Mind
TTITLE8=Donna Fargo - Superman
TTITLE9=Lacy J. Dalton - Takin' It Easy
TTITLE10=Lynn Anderson - It Must Be Love
TTITLE11=Margo Smith - It Only Hurts For A Little While
TTITLE12=Bonnie Guitar - Dark Moon
TTITLE13=Lynn Anderson - How Can I Unlove You
TTITLE14=Jeannie C. Riley - There Never Was A Time
TTITLE15=Connie Smith - The Hurtin's All Over
TTITLE16=Barbara Fairchild - Colour My World
TTITLE17=Jan Howard - Evil On Your Mind
TTITLE18=Lacy J. Dalton - Everybody Makes Mistakes
TTITLE19=Wanda Jackson - Crazy
TTITLE20=Susan Raye - Pitty Pitty Patter
TTITLE21=Jeannie Seely - I'll Lover You More
TTITLE22=Kitty Wells - Password
TTITLE23=Billie Jo Spears - What Have They Done To My Song Ma
TTITLE24=Patsy Cline - Walkin' After Midnight
EXTD=
EXTT0=
EXTT1=
EXTT2=
EXTT3=
EXTT4=
EXTT5=
EXTT6=
EXTT7=
EXTT8=
EXTT9=
EXTT10=
EXTT11=
EXTT12=
EXTT13=
EXTT14=
EXTT15=
EXTT16=
EXTT17=
EXTT18=
EXTT19=
EXTT20=
EXTT21=
EXTT22=
EXTT23=
EXTT24=
PLAYORDER=
